<svg width="24" height="24" viewBox="0 0 24 24" fill="none" xmlns="http://www.w3.org/2000/svg">
<path d="M8.80078 3.99988V6.39988" stroke="white" stroke-width="0.8" stroke-miterlimit="10" stroke-linecap="square" stroke-linejoin="round"/>
<path d="M15.1992 3.99988V6.39988" stroke="white" stroke-width="0.8" stroke-miterlimit="10" stroke-linecap="square" stroke-linejoin="round"/>
<path d="M5.19922 9.67212H18.7992" stroke="white" stroke-width="0.8" stroke-miterlimit="10" stroke-linecap="square" stroke-linejoin="round"/>
<path d="M8.80078 20H15.2008H19.2008V5.19995H15.2008H8.80078H4.80078V20H8.80078Z" stroke="white" stroke-width="0.8" stroke-miterlimit="10" stroke-linecap="round" stroke-linejoin="round"/>
<mask id="path-5-inside-1_2923_19128" fill="white">
<path fill-rule="evenodd" clip-rule="evenodd" d="M14.9542 13.3601H14.9614H14.9542Z"/>
</mask>
<path d="M14.9542 12.7601C14.6228 12.7601 14.3542 13.0287 14.3542 13.3601C14.3542 13.6915 14.6228 13.9601 14.9542 13.9601V12.7601ZM14.9614 13.9601C15.2928 13.9601 15.5614 13.6915 15.5614 13.3601C15.5614 13.0287 15.2928 12.7601 14.9614 12.7601V13.9601ZM14.9542 13.9601H14.9614V12.7601H14.9542V13.9601Z" fill="white" mask="url(#path-5-inside-1_2923_19128)"/>
<mask id="path-7-inside-2_2923_19128" fill="white">
<path fill-rule="evenodd" clip-rule="evenodd" d="M14.9542 15.7601H14.9614H14.9542Z"/>
</mask>
<path d="M14.9542 15.1601C14.6228 15.1601 14.3542 15.4287 14.3542 15.7601C14.3542 16.0915 14.6228 16.3601 14.9542 16.3601V15.1601ZM14.9614 16.3601C15.2928 16.3601 15.5614 16.0915 15.5614 15.7601C15.5614 15.4287 15.2928 15.1601 14.9614 15.1601V16.3601ZM14.9542 16.3601H14.9614V15.1601H14.9542V16.3601Z" fill="white" mask="url(#path-7-inside-2_2923_19128)"/>
<mask id="path-9-inside-3_2923_19128" fill="white">
<path fill-rule="evenodd" clip-rule="evenodd" d="M11.9972 13.3601H12.0044H11.9972Z"/>
</mask>
<path d="M11.9972 12.7601C11.6658 12.7601 11.3972 13.0287 11.3972 13.3601C11.3972 13.6915 11.6658 13.9601 11.9972 13.9601V12.7601ZM12.0044 13.9601C12.3357 13.9601 12.6044 13.6915 12.6044 13.3601C12.6044 13.0287 12.3357 12.7601 12.0044 12.7601V13.9601ZM11.9972 13.9601H12.0044V12.7601H11.9972V13.9601Z" fill="white" mask="url(#path-9-inside-3_2923_19128)"/>
<mask id="path-11-inside-4_2923_19128" fill="white">
<path fill-rule="evenodd" clip-rule="evenodd" d="M11.9972 15.7601H12.0044H11.9972Z"/>
</mask>
<path d="M11.9972 15.1601C11.6658 15.1601 11.3972 15.4287 11.3972 15.7601C11.3972 16.0915 11.6658 16.3601 11.9972 16.3601V15.1601ZM12.0044 16.3601C12.3357 16.3601 12.6044 16.0915 12.6044 15.7601C12.6044 15.4287 12.3357 15.1601 12.0044 15.1601V16.3601ZM11.9972 16.3601H12.0044V15.1601H11.9972V16.3601Z" fill="white" mask="url(#path-11-inside-4_2923_19128)"/>
<mask id="path-13-inside-5_2923_19128" fill="white">
<path fill-rule="evenodd" clip-rule="evenodd" d="M9.03623 13.3601H9.04342H9.03623Z"/>
</mask>
<path d="M9.03623 12.7601C8.70486 12.7601 8.43623 13.0287 8.43623 13.3601C8.43623 13.6915 8.70486 13.9601 9.03623 13.9601V12.7601ZM9.04342 13.9601C9.37479 13.9601 9.64342 13.6915 9.64342 13.3601C9.64342 13.0287 9.37479 12.7601 9.04342 12.7601V13.9601ZM9.03623 13.9601H9.04342V12.7601H9.03623V13.9601Z" fill="white" mask="url(#path-13-inside-5_2923_19128)"/>
<mask id="path-15-inside-6_2923_19128" fill="white">
<path fill-rule="evenodd" clip-rule="evenodd" d="M9.03623 15.7601H9.04342H9.03623Z"/>
</mask>
<path d="M9.03623 15.1601C8.70486 15.1601 8.43623 15.4287 8.43623 15.7601C8.43623 16.0915 8.70486 16.3601 9.03623 16.3601V15.1601ZM9.04342 16.3601C9.37479 16.3601 9.64342 16.0915 9.64342 15.7601C9.64342 15.4287 9.37479 15.1601 9.04342 15.1601V16.3601ZM9.03623 16.3601H9.04342V15.1601H9.03623V16.3601Z" fill="white" mask="url(#path-15-inside-6_2923_19128)"/>
</svg>
