<svg width="18" height="14" viewBox="0 0 18 14" fill="none" xmlns="http://www.w3.org/2000/svg">
<path d="M14.941 9.45499C16.2978 8.0857 17.1257 6.79134 17.1257 6.79134C17.1257 6.79134 13.3947 0.958008 8.79232 0.958008C8.10426 0.958008 7.43567 1.08839 6.79612 1.31016M3.00064 0.999634L15.0893 13.0377M0.458984 6.79134C0.458984 6.79134 2.09144 4.22714 4.50694 2.49963L13.0362 11.0857C11.7932 11.9632 10.3421 12.6247 8.79232 12.6247C4.18994 12.6247 0.458984 6.79134 0.458984 6.79134ZM8.79232 10.1246C6.95137 10.1246 5.45898 8.63225 5.45898 6.7913C5.45898 5.94593 5.93142 5.08724 6.45006 4.49963L11.176 9.12141C10.5708 9.74042 9.72641 10.1246 8.79232 10.1246Z" stroke="#050505" stroke-width="0.5" stroke-linecap="square"/>
</svg>
