<svg width="262" height="56" viewBox="0 0 262 56" fill="none" xmlns="http://www.w3.org/2000/svg">
<path d="M5.928 19L0.576 2.2H3.336L6.576 12.712C6.672 12.968 6.76 13.272 6.84 13.624C6.92 13.96 6.992 14.304 7.056 14.656C7.12 15.008 7.176 15.336 7.224 15.64C7.288 15.944 7.344 16.192 7.392 16.384L6.696 16.36C6.936 15.512 7.12 14.856 7.248 14.392C7.392 13.928 7.504 13.576 7.584 13.336C7.664 13.08 7.736 12.864 7.8 12.688L10.824 5.104H13.152L16.08 12.688C16.24 13.072 16.376 13.456 16.488 13.84C16.616 14.208 16.728 14.584 16.824 14.968C16.92 15.336 17.024 15.728 17.136 16.144L16.512 16.312C16.592 15.88 16.648 15.544 16.68 15.304C16.728 15.048 16.768 14.84 16.8 14.68C16.832 14.52 16.864 14.368 16.896 14.224C16.928 14.064 16.976 13.864 17.04 13.624C17.12 13.384 17.224 13.056 17.352 12.64L20.544 2.2H23.328L17.976 19H16.176L11.736 8.488L11.952 8.584L7.68 19H5.928ZM25.6343 19V1.24H28.1063V8.992L27.6743 9.28C27.8343 8.72 28.1463 8.208 28.6103 7.744C29.0743 7.264 29.6263 6.88 30.2663 6.592C30.9063 6.288 31.5623 6.136 32.2343 6.136C33.1943 6.136 33.9943 6.328 34.6343 6.712C35.2743 7.08 35.7543 7.648 36.0743 8.416C36.3943 9.184 36.5543 10.152 36.5543 11.32V19H34.0823V11.488C34.0823 10.768 33.9863 10.176 33.7943 9.712C33.6023 9.232 33.3063 8.888 32.9063 8.68C32.5063 8.456 32.0103 8.36 31.4183 8.392C30.9383 8.392 30.4983 8.472 30.0983 8.632C29.6983 8.776 29.3463 8.984 29.0423 9.256C28.7543 9.528 28.5223 9.848 28.3463 10.216C28.1863 10.568 28.1063 10.952 28.1063 11.368V19H26.8823C26.6743 19 26.4663 19 26.2583 19C26.0503 19 25.8423 19 25.6343 19ZM45.7877 19.24C44.4917 19.24 43.3397 18.968 42.3317 18.424C41.3397 17.864 40.5557 17.104 39.9797 16.144C39.4197 15.184 39.1397 14.08 39.1397 12.832C39.1397 11.84 39.2997 10.936 39.6197 10.12C39.9397 9.304 40.3797 8.6 40.9397 8.008C41.5157 7.4 42.1957 6.936 42.9797 6.616C43.7797 6.28 44.6437 6.112 45.5717 6.112C46.3877 6.112 47.1477 6.272 47.8517 6.592C48.5557 6.896 49.1637 7.32 49.6757 7.864C50.2037 8.408 50.6037 9.056 50.8757 9.808C51.1637 10.544 51.2997 11.352 51.2837 12.232L51.2597 13.288H40.9637L40.4117 11.32H49.1237L48.7637 11.728V11.152C48.7157 10.624 48.5397 10.152 48.2357 9.736C47.9317 9.32 47.5477 8.992 47.0837 8.752C46.6197 8.512 46.1157 8.392 45.5717 8.392C44.7077 8.392 43.9797 8.56 43.3877 8.896C42.7957 9.216 42.3477 9.696 42.0437 10.336C41.7397 10.96 41.5877 11.736 41.5877 12.664C41.5877 13.544 41.7717 14.312 42.1397 14.968C42.5077 15.608 43.0277 16.104 43.6997 16.456C44.3717 16.808 45.1477 16.984 46.0277 16.984C46.6517 16.984 47.2277 16.88 47.7557 16.672C48.2997 16.464 48.8837 16.088 49.5077 15.544L50.7557 17.296C50.3717 17.68 49.8997 18.016 49.3397 18.304C48.7957 18.592 48.2117 18.824 47.5877 19C46.9797 19.16 46.3797 19.24 45.7877 19.24ZM53.9702 19V6.4H56.4662V10.36L56.2262 9.4C56.4022 8.792 56.6982 8.24 57.1142 7.744C57.5462 7.248 58.0342 6.856 58.5782 6.568C59.1382 6.28 59.7142 6.136 60.3062 6.136C60.5782 6.136 60.8342 6.16 61.0742 6.208C61.3302 6.256 61.5302 6.312 61.6742 6.376L61.0262 9.064C60.8342 8.984 60.6182 8.92 60.3782 8.872C60.1542 8.808 59.9302 8.776 59.7062 8.776C59.2742 8.776 58.8582 8.864 58.4582 9.04C58.0742 9.2 57.7302 9.432 57.4262 9.736C57.1382 10.024 56.9062 10.368 56.7302 10.768C56.5542 11.152 56.4662 11.576 56.4662 12.04V19H53.9702ZM68.9908 19.24C67.6948 19.24 66.5428 18.968 65.5348 18.424C64.5428 17.864 63.7588 17.104 63.1828 16.144C62.6228 15.184 62.3428 14.08 62.3428 12.832C62.3428 11.84 62.5028 10.936 62.8228 10.12C63.1428 9.304 63.5828 8.6 64.1428 8.008C64.7188 7.4 65.3988 6.936 66.1828 6.616C66.9828 6.28 67.8468 6.112 68.7748 6.112C69.5908 6.112 70.3508 6.272 71.0548 6.592C71.7588 6.896 72.3668 7.32 72.8788 7.864C73.4068 8.408 73.8068 9.056 74.0788 9.808C74.3668 10.544 74.5028 11.352 74.4868 12.232L74.4628 13.288H64.1668L63.6148 11.32H72.3268L71.9668 11.728V11.152C71.9188 10.624 71.7428 10.152 71.4388 9.736C71.1348 9.32 70.7508 8.992 70.2868 8.752C69.8228 8.512 69.3188 8.392 68.7748 8.392C67.9108 8.392 67.1828 8.56 66.5908 8.896C65.9988 9.216 65.5508 9.696 65.2468 10.336C64.9428 10.96 64.7908 11.736 64.7908 12.664C64.7908 13.544 64.9748 14.312 65.3428 14.968C65.7108 15.608 66.2308 16.104 66.9028 16.456C67.5748 16.808 68.3508 16.984 69.2308 16.984C69.8548 16.984 70.4308 16.88 70.9588 16.672C71.5028 16.464 72.0868 16.088 72.7108 15.544L73.9588 17.296C73.5748 17.68 73.1028 18.016 72.5428 18.304C71.9988 18.592 71.4148 18.824 70.7908 19C70.1828 19.16 69.5828 19.24 68.9908 19.24ZM88.7479 19.24C87.7079 19.24 86.7559 18.952 85.8919 18.376C85.0439 17.8 84.3639 17.016 83.8519 16.024C83.3399 15.032 83.0839 13.912 83.0839 12.664C83.0839 11.4 83.3399 10.28 83.8519 9.304C84.3799 8.312 85.0839 7.536 85.9639 6.976C86.8599 6.416 87.8599 6.136 88.9639 6.136C89.6199 6.136 90.2199 6.232 90.7639 6.424C91.3079 6.616 91.7799 6.888 92.1799 7.24C92.5959 7.576 92.9319 7.968 93.1879 8.416C93.4599 8.864 93.6279 9.344 93.6919 9.856L93.1399 9.664V6.4H95.6359V19H93.1399V16L93.7159 15.832C93.6199 16.264 93.4199 16.688 93.1159 17.104C92.8279 17.504 92.4519 17.864 91.9879 18.184C91.5399 18.504 91.0359 18.76 90.4759 18.952C89.9319 19.144 89.3559 19.24 88.7479 19.24ZM89.3959 16.96C90.1479 16.96 90.8119 16.776 91.3879 16.408C91.9639 16.04 92.4119 15.536 92.7319 14.896C93.0679 14.24 93.2359 13.496 93.2359 12.664C93.2359 11.848 93.0679 11.12 92.7319 10.48C92.4119 9.84 91.9639 9.336 91.3879 8.968C90.8119 8.6 90.1479 8.416 89.3959 8.416C88.6599 8.416 88.0039 8.6 87.4279 8.968C86.8679 9.336 86.4199 9.84 86.0839 10.48C85.7639 11.12 85.6039 11.848 85.6039 12.664C85.6039 13.496 85.7639 14.24 86.0839 14.896C86.4199 15.536 86.8679 16.04 87.4279 16.408C88.0039 16.776 88.6599 16.96 89.3959 16.96ZM99.0874 19V6.4H101.583V10.36L101.343 9.4C101.519 8.792 101.815 8.24 102.231 7.744C102.663 7.248 103.151 6.856 103.695 6.568C104.255 6.28 104.831 6.136 105.423 6.136C105.695 6.136 105.951 6.16 106.191 6.208C106.447 6.256 106.647 6.312 106.791 6.376L106.143 9.064C105.951 8.984 105.735 8.92 105.495 8.872C105.271 8.808 105.047 8.776 104.823 8.776C104.391 8.776 103.975 8.864 103.575 9.04C103.191 9.2 102.847 9.432 102.543 9.736C102.255 10.024 102.023 10.368 101.847 10.768C101.671 11.152 101.583 11.576 101.583 12.04V19H99.0874ZM114.108 19.24C112.812 19.24 111.66 18.968 110.652 18.424C109.66 17.864 108.876 17.104 108.3 16.144C107.74 15.184 107.46 14.08 107.46 12.832C107.46 11.84 107.62 10.936 107.94 10.12C108.26 9.304 108.7 8.6 109.26 8.008C109.836 7.4 110.516 6.936 111.3 6.616C112.1 6.28 112.964 6.112 113.892 6.112C114.708 6.112 115.468 6.272 116.172 6.592C116.876 6.896 117.484 7.32 117.996 7.864C118.524 8.408 118.924 9.056 119.196 9.808C119.484 10.544 119.62 11.352 119.604 12.232L119.58 13.288H109.284L108.732 11.32H117.444L117.084 11.728V11.152C117.036 10.624 116.86 10.152 116.556 9.736C116.252 9.32 115.868 8.992 115.404 8.752C114.94 8.512 114.436 8.392 113.892 8.392C113.028 8.392 112.3 8.56 111.708 8.896C111.116 9.216 110.668 9.696 110.364 10.336C110.06 10.96 109.908 11.736 109.908 12.664C109.908 13.544 110.092 14.312 110.46 14.968C110.828 15.608 111.348 16.104 112.02 16.456C112.692 16.808 113.468 16.984 114.348 16.984C114.972 16.984 115.548 16.88 116.076 16.672C116.62 16.464 117.204 16.088 117.828 15.544L119.076 17.296C118.692 17.68 118.22 18.016 117.66 18.304C117.116 18.592 116.532 18.824 115.908 19C115.3 19.16 114.7 19.24 114.108 19.24ZM131.129 24.52L133.673 18.64L133.697 20.608L127.409 6.4H130.289L134.225 15.664C134.305 15.824 134.401 16.072 134.513 16.408C134.625 16.728 134.721 17.048 134.801 17.368L134.177 17.512C134.305 17.176 134.425 16.84 134.537 16.504C134.665 16.168 134.785 15.832 134.897 15.496L138.185 6.4H141.113L135.929 19L133.793 24.52H131.129ZM148.392 19.24C147.16 19.24 146.056 18.96 145.08 18.4C144.12 17.824 143.36 17.048 142.8 16.072C142.24 15.08 141.96 13.952 141.96 12.688C141.96 11.424 142.24 10.304 142.8 9.328C143.36 8.336 144.12 7.56 145.08 7C146.056 6.424 147.16 6.136 148.392 6.136C149.608 6.136 150.696 6.424 151.656 7C152.632 7.56 153.4 8.336 153.96 9.328C154.52 10.304 154.8 11.424 154.8 12.688C154.8 13.952 154.52 15.08 153.96 16.072C153.4 17.048 152.632 17.824 151.656 18.4C150.696 18.96 149.608 19.24 148.392 19.24ZM148.392 16.984C149.144 16.984 149.816 16.8 150.408 16.432C151 16.048 151.464 15.536 151.8 14.896C152.136 14.24 152.296 13.504 152.28 12.688C152.296 11.856 152.136 11.12 151.8 10.48C151.464 9.824 151 9.312 150.408 8.944C149.816 8.576 149.144 8.392 148.392 8.392C147.64 8.392 146.96 8.584 146.352 8.968C145.76 9.336 145.296 9.848 144.96 10.504C144.624 11.144 144.464 11.872 144.48 12.688C144.464 13.504 144.624 14.24 144.96 14.896C145.296 15.536 145.76 16.048 146.352 16.432C146.96 16.8 147.64 16.984 148.392 16.984ZM161.91 19.24C161.014 19.24 160.23 19.032 159.558 18.616C158.902 18.2 158.39 17.616 158.022 16.864C157.67 16.112 157.494 15.216 157.494 14.176V6.4H159.966V13.504C159.966 14.24 160.078 14.88 160.302 15.424C160.542 15.952 160.878 16.36 161.31 16.648C161.758 16.936 162.294 17.08 162.918 17.08C163.382 17.08 163.806 17.008 164.19 16.864C164.574 16.704 164.902 16.488 165.174 16.216C165.462 15.944 165.686 15.616 165.846 15.232C166.006 14.848 166.086 14.432 166.086 13.984V6.4H168.558V19H166.086V16.36L166.518 16.072C166.326 16.664 165.998 17.2 165.534 17.68C165.086 18.16 164.55 18.544 163.926 18.832C163.302 19.104 162.63 19.24 161.91 19.24ZM182.951 19.24C181.895 19.24 180.943 19.056 180.095 18.688C179.247 18.32 178.543 17.776 177.983 17.056L179.663 15.616C180.143 16.176 180.663 16.584 181.223 16.84C181.799 17.08 182.447 17.2 183.167 17.2C183.455 17.2 183.719 17.168 183.959 17.104C184.215 17.024 184.431 16.912 184.607 16.768C184.799 16.624 184.943 16.456 185.039 16.264C185.135 16.056 185.183 15.832 185.183 15.592C185.183 15.176 185.031 14.84 184.727 14.584C184.567 14.472 184.311 14.352 183.959 14.224C183.623 14.08 183.183 13.936 182.639 13.792C181.711 13.552 180.951 13.28 180.359 12.976C179.767 12.672 179.311 12.328 178.991 11.944C178.751 11.64 178.575 11.312 178.463 10.96C178.351 10.592 178.295 10.192 178.295 9.76C178.295 9.232 178.407 8.752 178.631 8.32C178.871 7.872 179.191 7.488 179.591 7.168C180.007 6.832 180.487 6.576 181.031 6.4C181.591 6.224 182.183 6.136 182.807 6.136C183.399 6.136 183.983 6.216 184.559 6.376C185.151 6.536 185.695 6.768 186.191 7.072C186.687 7.376 187.103 7.736 187.439 8.152L186.023 9.712C185.719 9.408 185.383 9.144 185.015 8.92C184.663 8.68 184.303 8.496 183.935 8.368C183.567 8.24 183.231 8.176 182.927 8.176C182.591 8.176 182.287 8.208 182.015 8.272C181.743 8.336 181.511 8.432 181.319 8.56C181.143 8.688 181.007 8.848 180.911 9.04C180.815 9.232 180.767 9.448 180.767 9.688C180.783 9.896 180.831 10.096 180.911 10.288C181.007 10.464 181.135 10.616 181.295 10.744C181.471 10.872 181.735 11.008 182.087 11.152C182.439 11.296 182.887 11.432 183.431 11.56C184.231 11.768 184.887 12 185.399 12.256C185.927 12.496 186.343 12.776 186.647 13.096C186.967 13.4 187.191 13.752 187.319 14.152C187.447 14.552 187.511 15 187.511 15.496C187.511 16.216 187.303 16.864 186.887 17.44C186.487 18 185.943 18.44 185.255 18.76C184.567 19.08 183.799 19.24 182.951 19.24ZM191.796 19V3.184H194.268V19H191.796ZM189.18 8.8V6.4H197.196V8.8H189.18ZM204.178 19.24C203.138 19.24 202.186 18.952 201.322 18.376C200.474 17.8 199.794 17.016 199.282 16.024C198.77 15.032 198.514 13.912 198.514 12.664C198.514 11.4 198.77 10.28 199.282 9.304C199.81 8.312 200.514 7.536 201.394 6.976C202.29 6.416 203.29 6.136 204.394 6.136C205.05 6.136 205.65 6.232 206.194 6.424C206.738 6.616 207.21 6.888 207.61 7.24C208.026 7.576 208.362 7.968 208.618 8.416C208.89 8.864 209.058 9.344 209.122 9.856L208.57 9.664V6.4H211.066V19H208.57V16L209.146 15.832C209.05 16.264 208.85 16.688 208.546 17.104C208.258 17.504 207.882 17.864 207.418 18.184C206.97 18.504 206.466 18.76 205.906 18.952C205.362 19.144 204.786 19.24 204.178 19.24ZM204.826 16.96C205.578 16.96 206.242 16.776 206.818 16.408C207.394 16.04 207.842 15.536 208.162 14.896C208.498 14.24 208.666 13.496 208.666 12.664C208.666 11.848 208.498 11.12 208.162 10.48C207.842 9.84 207.394 9.336 206.818 8.968C206.242 8.6 205.578 8.416 204.826 8.416C204.09 8.416 203.434 8.6 202.858 8.968C202.298 9.336 201.85 9.84 201.514 10.48C201.194 11.12 201.034 11.848 201.034 12.664C201.034 13.496 201.194 14.24 201.514 14.896C201.85 15.536 202.298 16.04 202.858 16.408C203.434 16.776 204.09 16.96 204.826 16.96ZM216.348 24.52L218.892 18.64L218.916 20.608L212.628 6.4H215.508L219.444 15.664C219.524 15.824 219.62 16.072 219.732 16.408C219.844 16.728 219.94 17.048 220.02 17.368L219.396 17.512C219.524 17.176 219.644 16.84 219.756 16.504C219.884 16.168 220.004 15.832 220.116 15.496L223.404 6.4H226.332L221.148 19L219.012 24.52H216.348ZM228.589 19V6.4H231.061V19H228.589ZM229.789 3.616C229.261 3.616 228.853 3.48 228.565 3.208C228.277 2.936 228.133 2.552 228.133 2.056C228.133 1.592 228.277 1.216 228.565 0.927999C228.869 0.639999 229.277 0.495999 229.789 0.495999C230.317 0.495999 230.725 0.631999 231.013 0.904C231.301 1.176 231.445 1.56 231.445 2.056C231.445 2.52 231.293 2.896 230.989 3.184C230.701 3.472 230.301 3.616 229.789 3.616ZM234.861 19V6.4H237.333V8.992L236.901 9.28C237.061 8.72 237.373 8.208 237.837 7.744C238.301 7.264 238.853 6.88 239.493 6.592C240.133 6.288 240.789 6.136 241.461 6.136C242.421 6.136 243.221 6.328 243.861 6.712C244.501 7.08 244.981 7.648 245.301 8.416C245.621 9.184 245.781 10.152 245.781 11.32V19H243.309V11.488C243.309 10.768 243.213 10.176 243.021 9.712C242.829 9.232 242.533 8.888 242.133 8.68C241.733 8.456 241.237 8.36 240.645 8.392C240.165 8.392 239.725 8.472 239.325 8.632C238.925 8.776 238.573 8.984 238.269 9.256C237.981 9.528 237.749 9.848 237.573 10.216C237.413 10.568 237.333 10.952 237.333 11.368V19H236.109C235.901 19 235.693 19 235.485 19C235.277 19 235.069 19 234.861 19ZM254.774 24.52C253.878 24.52 252.982 24.376 252.086 24.088C251.206 23.816 250.494 23.456 249.95 23.008L250.862 21.088C251.182 21.328 251.558 21.536 251.99 21.712C252.422 21.904 252.878 22.048 253.358 22.144C253.838 22.256 254.31 22.312 254.774 22.312C255.654 22.312 256.39 22.168 256.982 21.88C257.574 21.592 258.022 21.168 258.326 20.608C258.63 20.048 258.782 19.352 258.782 18.52V16.096L259.046 16.264C258.966 16.76 258.702 17.24 258.254 17.704C257.822 18.152 257.278 18.52 256.622 18.808C255.966 19.096 255.294 19.24 254.606 19.24C253.406 19.24 252.334 18.96 251.39 18.4C250.462 17.824 249.726 17.048 249.182 16.072C248.638 15.08 248.366 13.952 248.366 12.688C248.366 11.424 248.63 10.304 249.158 9.328C249.702 8.336 250.438 7.56 251.366 7C252.31 6.424 253.366 6.136 254.534 6.136C255.014 6.136 255.478 6.2 255.926 6.328C256.374 6.44 256.79 6.608 257.174 6.832C257.558 7.04 257.902 7.272 258.206 7.528C258.51 7.784 258.758 8.056 258.95 8.344C259.142 8.632 259.262 8.904 259.31 9.16L258.782 9.352V6.4H261.254V18.232C261.254 19.24 261.102 20.128 260.798 20.896C260.51 21.68 260.086 22.336 259.526 22.864C258.966 23.408 258.286 23.816 257.486 24.088C256.686 24.376 255.782 24.52 254.774 24.52ZM254.87 16.96C255.654 16.96 256.35 16.776 256.958 16.408C257.566 16.04 258.038 15.536 258.374 14.896C258.71 14.256 258.878 13.52 258.878 12.688C258.878 11.856 258.702 11.12 258.35 10.48C258.014 9.824 257.542 9.312 256.934 8.944C256.342 8.576 255.654 8.392 254.87 8.392C254.102 8.392 253.414 8.584 252.806 8.968C252.214 9.336 251.742 9.848 251.39 10.504C251.054 11.144 250.886 11.872 250.886 12.688C250.886 13.504 251.054 14.24 251.39 14.896C251.742 15.536 252.214 16.04 252.806 16.408C253.414 16.776 254.102 16.96 254.87 16.96ZM13.8 55L11.616 52.672L11.232 52.24L7.08 47.608C6.68 47.16 6.296 46.704 5.928 46.24C5.56 45.76 5.232 45.288 4.944 44.824C4.672 44.36 4.448 43.912 4.272 43.48C4.112 43.032 4.032 42.616 4.032 42.232C4.032 41.416 4.24 40.688 4.656 40.048C5.088 39.392 5.672 38.88 6.408 38.512C7.16 38.144 8.024 37.96 9 37.96C9.72 37.96 10.392 38.096 11.016 38.368C11.64 38.624 12.176 38.992 12.624 39.472C13.088 39.936 13.424 40.48 13.632 41.104L11.76 42.304C11.456 41.568 11.08 41.032 10.632 40.696C10.2 40.36 9.656 40.192 9 40.192C8.504 40.192 8.088 40.272 7.752 40.432C7.416 40.576 7.16 40.792 6.984 41.08C6.808 41.368 6.72 41.728 6.72 42.16C6.72 42.512 6.816 42.904 7.008 43.336C7.216 43.752 7.472 44.176 7.776 44.608C8.08 45.04 8.392 45.44 8.712 45.808C9.032 46.176 9.312 46.496 9.552 46.768L12.888 50.488L13.584 51.256L17.016 55H13.8ZM7.344 55.24C6.208 55.24 5.176 55 4.248 54.52C3.32 54.024 2.576 53.376 2.016 52.576C1.472 51.76 1.2 50.872 1.2 49.912C1.2 48.648 1.544 47.552 2.232 46.624C2.936 45.696 3.96 44.984 5.304 44.488L6.84 46.336C5.816 46.56 5.056 46.936 4.56 47.464C4.064 47.976 3.816 48.672 3.816 49.552C3.816 50.224 3.976 50.816 4.296 51.328C4.616 51.84 5.072 52.24 5.664 52.528C6.272 52.816 6.992 52.96 7.824 52.96C8.544 52.96 9.2 52.824 9.792 52.552C10.4 52.264 10.944 51.864 11.424 51.352C11.904 50.84 12.296 50.224 12.6 49.504C12.92 48.784 13.152 47.984 13.296 47.104H15.504C15.376 48.08 15.144 48.984 14.808 49.816C14.488 50.648 14.08 51.4 13.584 52.072C13.104 52.744 12.544 53.32 11.904 53.8C11.28 54.264 10.584 54.624 9.816 54.88C9.048 55.12 8.224 55.24 7.344 55.24ZM31.7127 55.364L26.2527 42.344H28.8287L32.5527 52.228L35.0727 45.34L33.8127 42.344H36.3887L40.1127 52.228L43.7527 42.344H44.8447L39.7207 55.364H39.2727L35.5767 46.628L32.1327 55.364H31.7127ZM47.2413 55V35.876H49.5093V44.136C50.1999 43.4827 50.8999 42.9787 51.6093 42.624C52.3186 42.2507 53.0839 42.064 53.9053 42.064C54.3533 42.064 54.8293 42.176 55.3333 42.4C55.8559 42.624 56.2946 43.044 56.6493 43.66C57.0226 44.2573 57.2093 45.1347 57.2093 46.292V55H54.8573V46.572C54.8573 45.6947 54.6986 45.0227 54.3813 44.556C54.0826 44.0707 53.5133 43.828 52.6733 43.828C52.2626 43.828 51.7773 43.9493 51.2173 44.192C50.6759 44.416 50.1346 44.7893 49.5933 45.312V55H47.2413ZM65.9993 55.336C64.842 55.336 63.7966 55.0933 62.8633 54.608C61.9486 54.1227 61.23 53.4133 60.7073 52.48C60.1846 51.5467 59.9233 50.408 59.9233 49.064C59.9233 47.5147 60.222 46.2173 60.8193 45.172C61.4166 44.1267 62.2006 43.3427 63.1713 42.82C64.142 42.2787 65.178 42.008 66.2793 42.008C67.1566 42.008 67.95 42.2413 68.6593 42.708C69.3873 43.156 69.966 43.8373 70.3953 44.752C70.8433 45.648 71.0673 46.768 71.0673 48.112H62.1353C62.1353 49.568 62.3593 50.716 62.8073 51.556C63.274 52.3773 63.8713 52.956 64.5993 53.292C65.346 53.628 66.1206 53.796 66.9233 53.796C67.6513 53.796 68.2953 53.7213 68.8553 53.572C69.4153 53.4227 69.9286 53.2453 70.3953 53.04V54.02C69.8166 54.356 69.154 54.664 68.4073 54.944C67.6606 55.2053 66.858 55.336 65.9993 55.336ZM62.2473 47.272H68.7993C68.7433 46.432 68.5566 45.7507 68.2393 45.228C67.9406 44.7053 67.5766 44.3133 67.1473 44.052C66.7366 43.772 66.3166 43.5853 65.8873 43.492C65.4766 43.38 65.1313 43.324 64.8513 43.324C64.2166 43.6227 63.6566 44.1267 63.1713 44.836C62.7046 45.5267 62.3966 46.3387 62.2473 47.272ZM74.5603 55V46.208C74.5603 45.5547 74.467 45.032 74.2803 44.64C74.1123 44.2293 73.9163 43.912 73.6923 43.688C73.4683 43.4453 73.2816 43.268 73.1323 43.156L74.5603 42.092L76.8563 44.136C77.547 43.4827 78.191 42.9693 78.7883 42.596C79.4043 42.204 80.123 42.008 80.9443 42.008C81.3736 42.008 81.8403 42.12 82.3443 42.344C82.867 42.568 83.315 42.988 83.6883 43.604C84.0616 44.2013 84.2483 45.0787 84.2483 46.236V55H81.8683V46.516C81.8683 45.6387 81.7096 44.9667 81.3923 44.5C81.0936 44.0147 80.5336 43.772 79.7123 43.772C78.9096 43.772 77.9856 44.2947 76.9403 45.34V55H74.5603ZM92.3683 50.52L91.5563 49.876C92.3216 49.036 93.0123 48.1493 93.6283 47.216C94.2443 46.264 94.7296 45.3213 95.0843 44.388C95.4576 43.436 95.6443 42.5493 95.6443 41.728C95.6443 40.944 95.4576 40.2533 95.0843 39.656C94.711 39.04 94.095 38.564 93.2363 38.228C92.7136 38.228 92.0603 38.2933 91.2763 38.424C90.4923 38.536 89.811 38.676 89.2323 38.844V37.08C89.6056 36.9867 90.063 36.8933 90.6043 36.8C91.1456 36.7067 91.6496 36.66 92.1163 36.66C93.647 36.66 94.8323 36.9027 95.6723 37.388C96.5123 37.8547 97.1003 38.4613 97.4363 39.208C97.791 39.936 97.9683 40.692 97.9683 41.476C97.9683 42.1293 97.8003 42.8387 97.4643 43.604C97.147 44.3693 96.7083 45.1627 96.1483 45.984C95.607 46.7867 95.0096 47.58 94.3563 48.364C93.703 49.1293 93.0403 49.848 92.3683 50.52ZM92.2003 55.224C91.9016 55.224 91.575 55.112 91.2203 54.888C90.8656 54.664 90.6883 54.2907 90.6883 53.768C90.6883 53.3387 90.8376 52.984 91.1363 52.704C91.435 52.4053 91.7896 52.256 92.2003 52.256C92.6296 52.256 92.9936 52.4053 93.2923 52.704C93.591 53.0027 93.7403 53.3573 93.7403 53.768C93.7403 54.272 93.563 54.6453 93.2083 54.888C92.8723 55.112 92.5363 55.224 92.2003 55.224Z" fill="white"/>
</svg>
