<svg width="20" height="20" viewBox="0 0 20 20" fill="none" xmlns="http://www.w3.org/2000/svg">
<path d="M19.5844 14.11L11.0512 7.61316L10.5742 7.25L12.9641 5.43C13.007 5.39749 13.042 5.35526 13.0661 5.30665C13.0902 5.25805 13.1028 5.20441 13.1029 5.15C13.1029 4.31457 12.7759 3.51335 12.1938 2.92261C11.6117 2.33187 10.8223 2 9.99914 2C9.17598 2 8.38654 2.33187 7.80448 2.92261C7.22242 3.51335 6.89542 4.31457 6.89542 5.15C6.89542 5.24283 6.93176 5.33185 6.99643 5.39749C7.0611 5.46313 7.14882 5.5 7.24028 5.5C7.33174 5.5 7.41946 5.46313 7.48413 5.39749C7.54881 5.33185 7.58514 5.24283 7.58514 5.15C7.58764 4.51708 7.83137 3.9097 8.26528 3.45511C8.6992 3.00052 9.28961 2.734 9.91284 2.71138C10.5361 2.68875 11.1437 2.91179 11.6085 3.33376C12.0733 3.75573 12.3592 4.34388 12.4062 4.975L9.7974 6.96125L9.78533 6.97L0.413831 14.11C0.240237 14.2421 0.111974 14.4263 0.047188 14.6365C-0.0175984 14.8467 -0.0156287 15.0722 0.0528185 15.2812C0.121266 15.4902 0.252725 15.672 0.428599 15.801C0.604473 15.93 0.815858 15.9996 1.03285 16H18.9654C19.1826 16 19.3942 15.9307 19.5704 15.8018C19.7465 15.6729 19.8782 15.4911 19.9469 15.282C20.0156 15.073 20.0177 14.8473 19.9529 14.6369C19.8882 14.4266 19.7599 14.2422 19.5862 14.11H19.5844ZM19.2905 15.0611C19.269 15.1313 19.2258 15.1925 19.1672 15.2355C19.1086 15.2786 19.0378 15.3012 18.9654 15.3H1.03285C0.96047 15.3 0.889925 15.2769 0.831208 15.2339C0.772491 15.191 0.728578 15.1304 0.705689 15.0607C0.682801 14.991 0.682097 14.9158 0.703679 14.8456C0.72526 14.7755 0.768032 14.7141 0.825935 14.67L9.99914 7.6875L10.2867 7.9064L10.5742 8.1253L19.1706 14.67C19.2298 14.7131 19.2736 14.7746 19.2952 14.8452C19.3168 14.9157 19.3152 14.9916 19.2905 15.0611Z" fill="#656565"/>
</svg>
