<svg width="170" height="18" viewBox="0 0 170 18" fill="none" xmlns="http://www.w3.org/2000/svg">
<path d="M0.183122 0.291122H3.11571L7.99225 13.0665L12.8462 0.0439453L17.3518 12.8642L22.071 0.291122H23.1159L16.4305 17.9991L11.79 4.50463L6.93599 17.9991L0.171875 0.291122H0.183122Z" fill="white"/>
<path d="M31.1151 0.0439453L37.8792 17.7632H34.9916L32.6544 11.6732H27.5196L25.2162 17.7632H24.4297L31.1151 0.0439453ZM32.4072 10.9204L30.1038 4.85297L27.8005 10.9204H32.4185H32.4072Z" fill="white"/>
<path d="M44.4427 5.75234L44.4202 17.7524H43.6562V0.0332031L55.0384 12.1344V0.280397H55.8248V17.9884L44.4427 5.74111V5.75234Z" fill="white"/>
<path d="M74.5998 9.02142C74.5998 10.3136 74.375 11.5046 73.9255 12.572C73.4761 13.6394 72.847 14.5608 72.038 15.3136C71.229 16.0664 70.2402 16.6619 69.0941 17.0889C67.9368 17.5159 66.6671 17.7293 65.2626 17.7518H62.375V0.291016H65.1503C66.566 0.291016 67.8581 0.504504 69.0154 0.909001C70.1727 1.3135 71.1727 1.92025 71.993 2.6843C72.8132 3.44835 73.4536 4.3697 73.903 5.43712C74.3637 6.50454 74.5886 7.7068 74.5886 9.02142H74.5998ZM65.2626 17.0102C66.4986 16.9878 67.5323 16.7293 68.3525 16.235C69.1727 15.7406 69.8357 15.1001 70.3301 14.3248C70.8244 13.5495 71.1839 12.6956 71.3862 11.7518C71.5997 10.808 71.7008 9.89782 71.7008 8.99894C71.7008 8.10006 71.5885 7.17871 71.3638 6.24612C71.1391 5.30229 70.7682 4.45959 70.2513 3.6843C69.7345 2.92025 69.0717 2.29103 68.2627 1.78541C67.4537 1.29102 66.4424 1.0326 65.2626 1.0326V16.999V17.0102Z" fill="white"/>
<path d="M80.3633 0.291016H91.4084V1.04384H83.251V7.62816H90.7455V8.38097H83.251V17.0102H91.3297V17.7631H80.3633V0.302263V0.291016Z" fill="white"/>
<path d="M98.0816 0H103.756C108.149 0 109.936 2.33709 109.936 4.71913C109.936 6.77532 108.621 8.854 105.767 9.51692L113.205 17.7642H109.846L103.149 9.71916H100.452V17.7642H98.0703V0.0112299L98.0816 0ZM103.778 9.15736C105.902 9.15736 107.497 6.9214 107.497 4.74161C107.497 2.56182 106.61 0.550572 103.733 0.550572H100.464V9.14613H103.778V9.15736Z" fill="white"/>
<path d="M126.22 17.9991C124.804 17.9991 123.512 17.7856 122.354 17.3474C121.197 16.9092 120.197 16.3137 119.377 15.5272C118.557 14.7407 117.916 13.7968 117.467 12.6957C117.006 11.5946 116.781 10.3586 116.781 9.02153C116.781 7.68444 117.006 6.44847 117.467 5.34734C117.916 4.23497 118.557 3.30239 119.377 2.51587C120.197 1.72935 121.186 1.12259 122.354 0.69562C123.512 0.257415 124.804 0.0439453 126.22 0.0439453C127.635 0.0439453 128.927 0.257415 130.085 0.69562C131.242 1.12259 132.242 1.72935 133.062 2.51587C133.882 3.30239 134.523 4.24621 134.972 5.34734C135.433 6.44847 135.658 7.6732 135.658 9.02153C135.658 10.3698 135.433 11.5946 134.972 12.6957C134.512 13.8081 133.882 14.7407 133.062 15.5272C132.242 16.3137 131.253 16.9205 130.085 17.3474C128.916 17.7744 127.635 17.9991 126.22 17.9991ZM126.265 17.2575C127.242 17.2575 128.13 16.9991 128.927 16.4823C129.725 15.9654 130.399 15.3025 130.972 14.5159C131.545 13.7294 131.984 12.8305 132.298 11.8642C132.613 10.8867 132.77 9.94289 132.77 9.01029C132.77 8.0777 132.613 7.12263 132.298 6.15633C131.984 5.1788 131.545 4.3024 130.972 3.51588C130.399 2.72935 129.725 2.07765 128.927 1.57203C128.13 1.06641 127.242 0.807987 126.265 0.807987C125.287 0.807987 124.399 1.05517 123.59 1.57203C122.793 2.07765 122.096 2.72935 121.534 3.51588C120.972 4.3024 120.523 5.19003 120.208 6.15633C119.894 7.13387 119.736 8.0777 119.736 9.01029C119.736 9.94289 119.894 10.8979 120.208 11.8642C120.523 12.8305 120.961 13.7182 121.534 14.5159C122.107 15.3137 122.793 15.9766 123.59 16.4823C124.399 16.9991 125.287 17.2575 126.265 17.2575Z" fill="white"/>
<path d="M141.421 0.291563H143.466C143.972 0.291563 144.556 0.280328 145.197 0.257856C145.837 0.235384 146.5 0.224154 147.174 0.246626C147.848 0.257862 148.511 0.325272 149.163 0.41516C149.815 0.505048 150.399 0.696073 150.905 0.954502C151.41 1.21293 151.826 1.57248 152.14 2.02192C152.455 2.4826 152.612 3.06686 152.612 3.78597C152.612 4.8871 152.365 5.78599 151.848 6.48263C151.343 7.17926 150.635 7.68489 149.725 7.97702C150.691 8.32534 151.478 8.9096 152.084 9.74107C152.691 10.5613 153.006 11.5613 153.006 12.7186C153.006 13.4714 152.871 14.1568 152.601 14.7748C152.332 15.3928 151.961 15.9321 151.489 16.3703C151.017 16.8085 150.444 17.1569 149.781 17.3928C149.118 17.6288 148.388 17.7524 147.601 17.7524H141.41V0.291563H141.421ZM149.77 4.0107C149.826 3.13429 149.657 2.4826 149.287 2.07811C148.905 1.67361 148.388 1.3927 147.725 1.24663C147.253 1.13427 146.725 1.06686 146.14 1.04439C145.556 1.03316 144.949 1.02192 144.32 1.02192V7.56128C144.927 7.58375 145.556 7.59498 146.197 7.59498C146.837 7.59498 147.376 7.56129 147.837 7.48263C148.275 7.40398 148.612 7.23544 148.86 6.98825C149.107 6.74105 149.287 6.43769 149.421 6.10061C149.556 5.76353 149.635 5.40396 149.68 5.03317C149.725 4.66238 149.747 4.32531 149.77 4.02193V4.0107ZM148.163 8.40398C147.534 8.30286 146.893 8.26915 146.23 8.30286C145.579 8.33657 144.938 8.34781 144.309 8.34781V17.0333C145.23 17.0333 146.062 17.0333 146.77 17.022C147.489 17.022 148.096 16.8872 148.601 16.64C149.107 16.3928 149.489 15.9658 149.758 15.3591C150.017 14.7523 150.152 13.8422 150.152 12.6287C150.152 12.1006 150.118 11.5838 150.051 11.1119C149.983 10.6287 149.871 10.2017 149.714 9.80848C149.556 9.42646 149.354 9.11185 149.096 8.86466C148.837 8.61747 148.534 8.46017 148.163 8.41523V8.40398Z" fill="white"/>
<path d="M158.781 0.291016H169.826V1.04384H161.669V7.62816H169.163V8.38097H161.669V17.0102H169.748V17.7631H158.781V0.302263V0.291016Z" fill="white"/>
</svg>
